<?xml version="1.0" encoding="UTF-8"?>
<svg xmlns="http://www.w3.org/2000/svg" width="900" height="260" viewBox="0 0 900 260" role="img" aria-label="Profile tier card for Skpow1234">
  <style><![CDATA[
    :root{
      --bg:#070A12;
      --frame:#1C2242;
      --text:#D7DCF5;
      --accent:#8E3BFF;
      --glow:rgba(142, 59, 255, 0.55);
      --tier:#F2C14E;
    }
    .frame{ fill: var(--bg); stroke: var(--frame); stroke-width: 2; }
    .name{ fill: var(--text); font: 800 20px/1.1 system-ui, -apple-system, Segoe UI, Roboto, Arial; letter-spacing: 0.2px; }
    .handle{ fill: var(--accent); font: 700 12px/1.1 system-ui, -apple-system, Segoe UI, Roboto, Arial; }
    .topPct{ fill: var(--accent); font: 800 13px/1.1 system-ui, -apple-system, Segoe UI, Roboto, Arial; letter-spacing: 0.3px; }
    .promo{ fill: rgba(255,255,255,0.55); font: 500 11px/1.1 system-ui, -apple-system, Segoe UI, Roboto, Arial; }
    .tierName{ fill: var(--tier); font: 800 12px/1 system-ui, -apple-system, Segoe UI, Roboto, Arial; letter-spacing: 1.2px; }
    .division{ fill: var(--text); font: 800 16px/1 system-ui, -apple-system, Segoe UI, Roboto, Arial; letter-spacing: 1px; }
    .rowLabel{ fill: rgba(255,255,255,0.82); font: 700 12px/1 system-ui, -apple-system, Segoe UI, Roboto, Arial; }
    .iconFill{ fill: var(--accent); }
    .iconStroke{ fill: none; stroke: var(--accent); stroke-width: 1.4; }
    .rowValue{ fill: var(--text); font: 800 13px/1 system-ui, -apple-system, Segoe UI, Roboto, Arial; text-anchor: end; }
    .rowScore{ fill: rgba(255,255,255,0.45); font: 600 11px/1 system-ui, -apple-system, Segoe UI, Roboto, Arial; }
    .rowScoreNum{ fill: var(--text); font-weight: 800; }
    .barTrack{ fill: rgba(255,255,255,0.06); }
    .barFill{ fill: var(--accent); }
    .avatarRing{ fill: none; stroke: var(--accent); stroke-width: 2; }
    .avatarBg{ fill: rgba(255,255,255,0.06); }
    .avatarLetter{ fill: var(--accent); font: 800 20px/1 system-ui, -apple-system, Segoe UI, Roboto, Arial; text-anchor: middle; }
    .hexFill{ fill: var(--tier); fill-opacity: 0.22; stroke: var(--tier); stroke-width: 2; }
    .hexInner{ fill: none; stroke: rgba(255,255,255,0.10); stroke-width: 1; }
    .footer{ fill: rgba(255,255,255,0.45); font: 500 10px/1 system-ui, -apple-system, Segoe UI, Roboto, Arial; }
    @keyframes hexPulse { 0%,100% { filter: drop-shadow(0 0 6px #8E3BFF); } 50% { filter: drop-shadow(0 0 18px #8E3BFF); } }
       .hexBadge { animation: hexPulse 3.6s ease-in-out infinite; transform-origin: center; }
       @keyframes barGrow { from { transform: scaleX(0); } to { transform: scaleX(1); } }
       .barFillAnim { transform-origin: left center; animation: barGrow 1.8s cubic-bezier(0.22, 0.9, 0.3, 1) both; }
       @media (prefers-reduced-motion: reduce) { .hexBadge, .barFillAnim { animation: none; } .barFillAnim { transform: none; } }
  ]]></style>

  <rect x="18" y="18" width="864" height="224" rx="16" class="frame"/>

  <g class="avatar">
    <circle cx="60" cy="56" r="22" class="avatarBg"/>
    <circle cx="60" cy="56" r="22" class="avatarRing"/>
    <text x="60" y="63" class="avatarLetter">S</text>
  </g>

  <g class="identity">
    <text x="96" y="52" class="name">Skpow1234</text>
    <text x="96" y="68" class="handle">@Skpow1234</text>
    <text x="96" y="88" class="topPct">Top 60%</text>
    <text x="96" y="104" class="promo">+2 LP to PLAT IV</text>
  </g>

  <g class="hexBadge">
    <text x="830" y="30" class="tierName" text-anchor="middle">GOLD</text>
    <path d="M 830,38 L 864.641,58 L 864.641,98 L 830,118 L 795.359,98 L 795.359,58 Z" class="hexFill"/>
    <path d="M 830,43 L 860.311,60.5 L 860.311,95.5 L 830,113 L 799.689,95.5 L 799.689,60.5 Z" class="hexInner"/>
    <text x="830" y="84" class="division" text-anchor="middle">I</text>
    <path d="810.5,127 L 811.734,130.301 L 815.255,130.455 L 812.497,132.649 L 813.439,136.045 L 810.5,134.1 L 807.561,136.045 L 808.503,132.649 L 805.745,130.455 L 809.266,130.301 Z" fill="#F2C14E" stroke="#F2C14E" stroke-width="1.2"/><path d="823.5,127 L 824.734,130.301 L 828.255,130.455 L 825.497,132.649 L 826.439,136.045 L 823.5,134.1 L 820.561,136.045 L 821.503,132.649 L 818.745,130.455 L 822.266,130.301 Z" fill="#F2C14E" stroke="#F2C14E" stroke-width="1.2"/><path d="836.5,127 L 837.734,130.301 L 841.255,130.455 L 838.497,132.649 L 839.439,136.045 L 836.5,134.1 L 833.561,136.045 L 834.503,132.649 L 831.745,130.455 L 835.266,130.301 Z" fill="#F2C14E" stroke="#F2C14E" stroke-width="1.2"/><path d="849.5,127 L 850.734,130.301 L 854.255,130.455 L 851.497,132.649 L 852.439,136.045 L 849.5,134.1 L 846.561,136.045 L 847.503,132.649 L 844.745,130.455 L 848.266,130.301 Z" fill="#F2C14E" stroke="#F2C14E" stroke-width="1.2"/>
  </g>

  
  <g transform="translate(0, 0)" class="row row0">
    <g transform="translate(34, 141)" class="rowIcon"><circle cx="0" cy="0" r="2.5" class="iconFill"/><circle cx="0" cy="0" r="6" class="iconStroke"/></g>
    <text x="48" y="145" class="rowLabel">Commits</text>
    <rect x="98" y="137" width="696" height="8" rx="4" class="barTrack"/>
    <rect x="98" y="137" width="647.28" height="8" rx="4" class="barFill barFillAnim" style="animation-delay:0s"/>
    <text x="804" y="145" class="rowValue">1.4k</text>
    <text x="868" y="145" class="rowScore" text-anchor="end"><tspan class="rowScoreNum">93</tspan> / 100</text>
  </g>
  <g transform="translate(0, 0)" class="row row1">
    <g transform="translate(34, 161)" class="rowIcon"><path d="M 0 -7 C 3 -3 5 -1 5 2 C 5 5 2.5 7 0 7 C -2.5 7 -5 5 -5 2 C -5 0 -3 -2 -1.5 -1 C -2 -3 -1 -5 0 -7 Z" class="iconFill"/></g>
    <text x="48" y="165" class="rowLabel">Streak</text>
    <rect x="98" y="157" width="696" height="8" rx="4" class="barTrack"/>
    <rect x="98" y="157" width="0" height="8" rx="4" class="barFill barFillAnim" style="animation-delay:0.08s"/>
    <text x="804" y="165" class="rowValue">0d</text>
    <text x="868" y="165" class="rowScore" text-anchor="end"><tspan class="rowScoreNum">0</tspan> / 100</text>
  </g>
  <g transform="translate(0, 0)" class="row row2">
    <g transform="translate(34, 181)" class="rowIcon"><path d="M 0,-6 L 1.481,-2.039 L 5.706,-1.854 L 2.397,0.779 L 3.527,4.854 L 0,2.52 L -3.527,4.854 L -2.397,0.779 L -5.706,-1.854 L -1.481,-2.039 Z" class="iconFill"/></g>
    <text x="48" y="185" class="rowLabel">Best</text>
    <rect x="98" y="177" width="696" height="8" rx="4" class="barTrack"/>
    <rect x="98" y="177" width="62.64" height="8" rx="4" class="barFill barFillAnim" style="animation-delay:0.16s"/>
    <text x="804" y="185" class="rowValue">18d</text>
    <text x="868" y="185" class="rowScore" text-anchor="end"><tspan class="rowScoreNum">9</tspan> / 100</text>
  </g>
  <g transform="translate(0, 0)" class="row row3">
    <g transform="translate(34, 201)" class="rowIcon"><rect x="-6" y="-5" width="12" height="11" rx="1.5" class="iconStroke"/><rect x="-6" y="-5" width="12" height="3" class="iconFill"/><rect x="-4" y="-7" width="1.4" height="3" class="iconFill"/><rect x="2.6" y="-7" width="1.4" height="3" class="iconFill"/></g>
    <text x="48" y="205" class="rowLabel">30d</text>
    <rect x="98" y="197" width="696" height="8" rx="4" class="barTrack"/>
    <rect x="98" y="197" width="542.88" height="8" rx="4" class="barFill barFillAnim" style="animation-delay:0.24s"/>
    <text x="804" y="205" class="rowValue">156</text>
    <text x="868" y="205" class="rowScore" text-anchor="end"><tspan class="rowScoreNum">78</tspan> / 100</text>
  </g>
  <g transform="translate(0, 0)" class="row row4">
    <g transform="translate(34, 221)" class="rowIcon"><path d="M 0 -6 L 6 0 L 0 6 L -6 0 Z" class="iconFill"/></g>
    <text x="48" y="225" class="rowLabel">Best day</text>
    <rect x="98" y="217" width="696" height="8" rx="4" class="barTrack"/>
    <rect x="98" y="217" width="696" height="8" rx="4" class="barFill barFillAnim" style="animation-delay:0.32s"/>
    <text x="804" y="225" class="rowValue">69</text>
    <text x="868" y="225" class="rowScore" text-anchor="end"><tspan class="rowScoreNum">100</tspan> / 100</text>
  </g>

  <text x="22" y="236" class="footer">lp-climb • data: GitHub contributions • theme: Assassin</text>
</svg>